<mxfile host="app.diagrams.net" modified="2023-03-14T06:22:23.859Z" agent="5.0 (Windows NT 10.0; Win64; x64) AppleWebKit/537.36 (KHTML, like Gecko) Chrome/110.0.0.0 Safari/537.36 Edg/110.0.1587.57" etag="WZTI4zdDdB0Gs-N2hGmt" version="21.0.6" type="github" pages="6">
  <diagram id="237nUi8adW-Wz0Dd_PG6" name="第 1 页">
    <mxGraphModel dx="2261" dy="764" grid="1" gridSize="10" guides="1" tooltips="1" connect="1" arrows="1" fold="1" page="1" pageScale="1" pageWidth="827" pageHeight="1169" math="0" shadow="0">
      <root>
        <mxCell id="0" />
        <mxCell id="1" parent="0" />
        <mxCell id="MYEUlOmizWU3UoJsxoME-9" style="edgeStyle=orthogonalEdgeStyle;rounded=0;orthogonalLoop=1;jettySize=auto;html=1;exitX=0.5;exitY=1;exitDx=0;exitDy=0;" parent="1" source="MYEUlOmizWU3UoJsxoME-2" edge="1">
          <mxGeometry relative="1" as="geometry">
            <mxPoint x="390.00000000000045" y="659.9999999999998" as="targetPoint" />
          </mxGeometry>
        </mxCell>
        <mxCell id="MYEUlOmizWU3UoJsxoME-2" value="Serverless&lt;br&gt;Resource&lt;br&gt;Management" style="rounded=0;whiteSpace=wrap;html=1;" parent="1" vertex="1">
          <mxGeometry x="330" y="610" width="120" height="60" as="geometry" />
        </mxCell>
        <mxCell id="MYEUlOmizWU3UoJsxoME-25" style="edgeStyle=orthogonalEdgeStyle;rounded=0;orthogonalLoop=1;jettySize=auto;html=1;entryX=0;entryY=0.5;entryDx=0;entryDy=0;strokeWidth=1;endArrow=none;endFill=0;" parent="1" source="MYEUlOmizWU3UoJsxoME-3" target="MYEUlOmizWU3UoJsxoME-17" edge="1">
          <mxGeometry relative="1" as="geometry">
            <Array as="points">
              <mxPoint x="-90" y="800" />
            </Array>
          </mxGeometry>
        </mxCell>
        <mxCell id="MYEUlOmizWU3UoJsxoME-3" value="系统设计和架构模型" style="rounded=0;whiteSpace=wrap;html=1;" parent="1" vertex="1">
          <mxGeometry x="-130" y="710" width="80" height="50" as="geometry" />
        </mxCell>
        <mxCell id="MYEUlOmizWU3UoJsxoME-4" value="负载管理" style="rounded=0;whiteSpace=wrap;html=1;" parent="1" vertex="1">
          <mxGeometry x="140" y="710" width="80" height="50" as="geometry" />
        </mxCell>
        <mxCell id="MYEUlOmizWU3UoJsxoME-5" value="QoS目标" style="rounded=0;whiteSpace=wrap;html=1;" parent="1" vertex="1">
          <mxGeometry x="500" y="710" width="120" height="60" as="geometry" />
        </mxCell>
        <mxCell id="MYEUlOmizWU3UoJsxoME-6" value="资源管理元素" style="rounded=0;whiteSpace=wrap;html=1;" parent="1" vertex="1">
          <mxGeometry x="750" y="710" width="120" height="60" as="geometry" />
        </mxCell>
        <mxCell id="MYEUlOmizWU3UoJsxoME-7" value="" style="endArrow=none;html=1;rounded=0;" parent="1" edge="1">
          <mxGeometry width="50" height="50" relative="1" as="geometry">
            <mxPoint x="-92" y="690" as="sourcePoint" />
            <mxPoint x="810" y="690" as="targetPoint" />
          </mxGeometry>
        </mxCell>
        <mxCell id="MYEUlOmizWU3UoJsxoME-12" value="" style="endArrow=none;html=1;rounded=0;exitX=0.5;exitY=1;exitDx=0;exitDy=0;strokeWidth=2;" parent="1" source="MYEUlOmizWU3UoJsxoME-2" edge="1">
          <mxGeometry width="50" height="50" relative="1" as="geometry">
            <mxPoint x="390" y="500" as="sourcePoint" />
            <mxPoint x="390" y="690" as="targetPoint" />
          </mxGeometry>
        </mxCell>
        <mxCell id="MYEUlOmizWU3UoJsxoME-13" value="" style="endArrow=none;html=1;rounded=0;strokeWidth=2;entryX=0.5;entryY=0;entryDx=0;entryDy=0;" parent="1" edge="1">
          <mxGeometry width="50" height="50" relative="1" as="geometry">
            <mxPoint x="-91" y="690" as="sourcePoint" />
            <mxPoint x="-91" y="709.9999999999998" as="targetPoint" />
          </mxGeometry>
        </mxCell>
        <mxCell id="MYEUlOmizWU3UoJsxoME-14" value="" style="endArrow=none;html=1;rounded=0;strokeWidth=2;entryX=0.5;entryY=0;entryDx=0;entryDy=0;" parent="1" target="MYEUlOmizWU3UoJsxoME-4" edge="1">
          <mxGeometry width="50" height="50" relative="1" as="geometry">
            <mxPoint x="180" y="690" as="sourcePoint" />
            <mxPoint x="-79" y="719.9999999999998" as="targetPoint" />
          </mxGeometry>
        </mxCell>
        <mxCell id="MYEUlOmizWU3UoJsxoME-15" value="" style="endArrow=none;html=1;rounded=0;strokeWidth=2;entryX=0.5;entryY=0;entryDx=0;entryDy=0;" parent="1" target="MYEUlOmizWU3UoJsxoME-5" edge="1">
          <mxGeometry width="50" height="50" relative="1" as="geometry">
            <mxPoint x="560" y="690" as="sourcePoint" />
            <mxPoint x="190.00000000000045" y="719.9999999999998" as="targetPoint" />
          </mxGeometry>
        </mxCell>
        <mxCell id="MYEUlOmizWU3UoJsxoME-16" value="" style="endArrow=none;html=1;rounded=0;strokeWidth=2;entryX=0.5;entryY=0;entryDx=0;entryDy=0;" parent="1" target="MYEUlOmizWU3UoJsxoME-6" edge="1">
          <mxGeometry width="50" height="50" relative="1" as="geometry">
            <mxPoint x="810" y="690" as="sourcePoint" />
            <mxPoint x="629.9999999999995" y="719.9999999999998" as="targetPoint" />
          </mxGeometry>
        </mxCell>
        <mxCell id="MYEUlOmizWU3UoJsxoME-17" value="部署模型" style="rounded=0;whiteSpace=wrap;html=1;" parent="1" vertex="1">
          <mxGeometry x="-20" y="780" width="90" height="40" as="geometry" />
        </mxCell>
        <mxCell id="MYEUlOmizWU3UoJsxoME-18" value="云" style="rounded=0;whiteSpace=wrap;html=1;" parent="1" vertex="1">
          <mxGeometry x="40" y="840" width="90" height="40" as="geometry" />
        </mxCell>
        <mxCell id="MYEUlOmizWU3UoJsxoME-19" value="边" style="rounded=0;whiteSpace=wrap;html=1;" parent="1" vertex="1">
          <mxGeometry x="40" y="900" width="90" height="40" as="geometry" />
        </mxCell>
        <mxCell id="MYEUlOmizWU3UoJsxoME-20" value="云/边" style="rounded=0;whiteSpace=wrap;html=1;" parent="1" vertex="1">
          <mxGeometry x="40" y="960" width="90" height="40" as="geometry" />
        </mxCell>
        <mxCell id="MYEUlOmizWU3UoJsxoME-21" value="基于VM / FaaS" style="rounded=0;whiteSpace=wrap;html=1;" parent="1" vertex="1">
          <mxGeometry x="40" y="1020" width="90" height="40" as="geometry" />
        </mxCell>
        <mxCell id="MYEUlOmizWU3UoJsxoME-22" value="资源隔离" style="rounded=0;whiteSpace=wrap;html=1;" parent="1" vertex="1">
          <mxGeometry x="-20" y="1080" width="90" height="40" as="geometry" />
        </mxCell>
        <mxCell id="MYEUlOmizWU3UoJsxoME-23" value="计费模型" style="rounded=0;whiteSpace=wrap;html=1;" parent="1" vertex="1">
          <mxGeometry x="-20" y="1150" width="90" height="40" as="geometry" />
        </mxCell>
        <mxCell id="MYEUlOmizWU3UoJsxoME-24" value="Runtime资源限制" style="rounded=0;whiteSpace=wrap;html=1;" parent="1" vertex="1">
          <mxGeometry x="-20" y="1220" width="90" height="40" as="geometry" />
        </mxCell>
        <mxCell id="MYEUlOmizWU3UoJsxoME-27" value="" style="endArrow=none;html=1;rounded=0;strokeWidth=1;" parent="1" edge="1">
          <mxGeometry width="50" height="50" relative="1" as="geometry">
            <mxPoint x="-90" y="800" as="sourcePoint" />
            <mxPoint x="-90" y="1240" as="targetPoint" />
          </mxGeometry>
        </mxCell>
        <mxCell id="MYEUlOmizWU3UoJsxoME-28" value="" style="endArrow=none;html=1;rounded=0;strokeWidth=1;entryX=0;entryY=0.5;entryDx=0;entryDy=0;" parent="1" target="MYEUlOmizWU3UoJsxoME-18" edge="1">
          <mxGeometry width="50" height="50" relative="1" as="geometry">
            <mxPoint x="-90" y="860" as="sourcePoint" />
            <mxPoint x="440" y="620" as="targetPoint" />
          </mxGeometry>
        </mxCell>
        <mxCell id="MYEUlOmizWU3UoJsxoME-29" value="" style="endArrow=none;html=1;rounded=0;strokeWidth=1;entryX=0;entryY=0.5;entryDx=0;entryDy=0;" parent="1" edge="1">
          <mxGeometry width="50" height="50" relative="1" as="geometry">
            <mxPoint x="-90" y="919.2899999999997" as="sourcePoint" />
            <mxPoint x="40.000000000000455" y="919.2899999999997" as="targetPoint" />
          </mxGeometry>
        </mxCell>
        <mxCell id="MYEUlOmizWU3UoJsxoME-30" value="" style="endArrow=none;html=1;rounded=0;strokeWidth=1;entryX=0;entryY=0.5;entryDx=0;entryDy=0;" parent="1" edge="1">
          <mxGeometry width="50" height="50" relative="1" as="geometry">
            <mxPoint x="-90" y="979.2899999999997" as="sourcePoint" />
            <mxPoint x="40.000000000000455" y="979.2899999999997" as="targetPoint" />
          </mxGeometry>
        </mxCell>
        <mxCell id="MYEUlOmizWU3UoJsxoME-31" value="" style="endArrow=none;html=1;rounded=0;strokeWidth=1;entryX=0;entryY=0.5;entryDx=0;entryDy=0;" parent="1" edge="1">
          <mxGeometry width="50" height="50" relative="1" as="geometry">
            <mxPoint x="-90" y="1039.2899999999997" as="sourcePoint" />
            <mxPoint x="40.000000000000455" y="1039.2899999999997" as="targetPoint" />
          </mxGeometry>
        </mxCell>
        <mxCell id="MYEUlOmizWU3UoJsxoME-32" value="" style="endArrow=none;html=1;rounded=0;strokeWidth=1;entryX=0;entryY=0.5;entryDx=0;entryDy=0;" parent="1" target="MYEUlOmizWU3UoJsxoME-22" edge="1">
          <mxGeometry width="50" height="50" relative="1" as="geometry">
            <mxPoint x="-90" y="1100" as="sourcePoint" />
            <mxPoint x="440" y="800" as="targetPoint" />
          </mxGeometry>
        </mxCell>
        <mxCell id="MYEUlOmizWU3UoJsxoME-33" value="" style="endArrow=none;html=1;rounded=0;strokeWidth=1;entryX=0;entryY=0.5;entryDx=0;entryDy=0;" parent="1" edge="1">
          <mxGeometry width="50" height="50" relative="1" as="geometry">
            <mxPoint x="-90" y="1168" as="sourcePoint" />
            <mxPoint x="-20" y="1168" as="targetPoint" />
          </mxGeometry>
        </mxCell>
        <mxCell id="MYEUlOmizWU3UoJsxoME-34" value="" style="endArrow=none;html=1;rounded=0;strokeWidth=1;entryX=0;entryY=0.5;entryDx=0;entryDy=0;" parent="1" edge="1">
          <mxGeometry width="50" height="50" relative="1" as="geometry">
            <mxPoint x="-91" y="1240" as="sourcePoint" />
            <mxPoint x="-21" y="1240" as="targetPoint" />
          </mxGeometry>
        </mxCell>
        <mxCell id="MYEUlOmizWU3UoJsxoME-35" value="应用模型" style="rounded=0;whiteSpace=wrap;html=1;" parent="1" vertex="1">
          <mxGeometry x="200" y="780" width="80" height="40" as="geometry" />
        </mxCell>
        <mxCell id="MYEUlOmizWU3UoJsxoME-36" value="应用模型" style="rounded=0;whiteSpace=wrap;html=1;" parent="1" vertex="1">
          <mxGeometry x="324" y="830" width="90" height="40" as="geometry" />
        </mxCell>
        <mxCell id="MYEUlOmizWU3UoJsxoME-37" value="DAG" style="rounded=0;whiteSpace=wrap;html=1;" parent="1" vertex="1">
          <mxGeometry x="270" y="890" width="80" height="30" as="geometry" />
        </mxCell>
        <mxCell id="MYEUlOmizWU3UoJsxoME-38" value="Task" style="rounded=0;whiteSpace=wrap;html=1;" parent="1" vertex="1">
          <mxGeometry x="380" y="890" width="80" height="30" as="geometry" />
        </mxCell>
        <mxCell id="MYEUlOmizWU3UoJsxoME-39" value="调度的粒度" style="rounded=0;whiteSpace=wrap;html=1;" parent="1" vertex="1">
          <mxGeometry x="380" y="940" width="80" height="40" as="geometry" />
        </mxCell>
        <mxCell id="MYEUlOmizWU3UoJsxoME-40" value="" style="endArrow=none;html=1;rounded=0;strokeWidth=1;" parent="1" edge="1">
          <mxGeometry width="50" height="50" relative="1" as="geometry">
            <mxPoint x="310" y="879" as="sourcePoint" />
            <mxPoint x="420" y="879" as="targetPoint" />
          </mxGeometry>
        </mxCell>
        <mxCell id="MYEUlOmizWU3UoJsxoME-41" value="" style="endArrow=none;html=1;rounded=0;strokeWidth=1;exitX=0.5;exitY=1;exitDx=0;exitDy=0;" parent="1" source="MYEUlOmizWU3UoJsxoME-36" edge="1">
          <mxGeometry width="50" height="50" relative="1" as="geometry">
            <mxPoint x="390" y="670" as="sourcePoint" />
            <mxPoint x="369" y="880" as="targetPoint" />
          </mxGeometry>
        </mxCell>
        <mxCell id="MYEUlOmizWU3UoJsxoME-42" value="" style="endArrow=none;html=1;rounded=0;strokeWidth=1;" parent="1" edge="1">
          <mxGeometry width="50" height="50" relative="1" as="geometry">
            <mxPoint x="310" y="879" as="sourcePoint" />
            <mxPoint x="310" y="890" as="targetPoint" />
            <Array as="points">
              <mxPoint x="310" y="879" />
            </Array>
          </mxGeometry>
        </mxCell>
        <mxCell id="MYEUlOmizWU3UoJsxoME-43" value="" style="endArrow=none;html=1;rounded=0;strokeWidth=1;entryX=0.5;entryY=0;entryDx=0;entryDy=0;" parent="1" target="MYEUlOmizWU3UoJsxoME-38" edge="1">
          <mxGeometry width="50" height="50" relative="1" as="geometry">
            <mxPoint x="420" y="879" as="sourcePoint" />
            <mxPoint x="420" y="889" as="targetPoint" />
          </mxGeometry>
        </mxCell>
        <mxCell id="MYEUlOmizWU3UoJsxoME-44" value="" style="endArrow=none;html=1;rounded=0;strokeWidth=1;exitX=0.5;exitY=1;exitDx=0;exitDy=0;" parent="1" source="MYEUlOmizWU3UoJsxoME-4" edge="1">
          <mxGeometry width="50" height="50" relative="1" as="geometry">
            <mxPoint x="390" y="670" as="sourcePoint" />
            <mxPoint x="180" y="1240" as="targetPoint" />
          </mxGeometry>
        </mxCell>
        <mxCell id="MYEUlOmizWU3UoJsxoME-45" value="" style="endArrow=none;html=1;rounded=0;strokeWidth=1;entryX=0;entryY=0.5;entryDx=0;entryDy=0;" parent="1" target="MYEUlOmizWU3UoJsxoME-35" edge="1">
          <mxGeometry width="50" height="50" relative="1" as="geometry">
            <mxPoint x="180" y="800" as="sourcePoint" />
            <mxPoint x="440" y="620" as="targetPoint" />
          </mxGeometry>
        </mxCell>
        <mxCell id="MYEUlOmizWU3UoJsxoME-46" value="" style="endArrow=none;html=1;rounded=0;strokeWidth=1;exitX=0.5;exitY=1;exitDx=0;exitDy=0;" parent="1" source="MYEUlOmizWU3UoJsxoME-35" edge="1">
          <mxGeometry width="50" height="50" relative="1" as="geometry">
            <mxPoint x="390" y="670" as="sourcePoint" />
            <mxPoint x="240" y="960" as="targetPoint" />
            <Array as="points">
              <mxPoint x="240" y="920" />
            </Array>
          </mxGeometry>
        </mxCell>
        <mxCell id="MYEUlOmizWU3UoJsxoME-47" value="" style="endArrow=none;html=1;rounded=0;strokeWidth=1;entryX=0;entryY=0.5;entryDx=0;entryDy=0;" parent="1" target="MYEUlOmizWU3UoJsxoME-39" edge="1">
          <mxGeometry width="50" height="50" relative="1" as="geometry">
            <mxPoint x="240" y="960" as="sourcePoint" />
            <mxPoint x="440" y="620" as="targetPoint" />
            <Array as="points" />
          </mxGeometry>
        </mxCell>
        <mxCell id="MYEUlOmizWU3UoJsxoME-49" value="负载性质" style="rounded=0;whiteSpace=wrap;html=1;" parent="1" vertex="1">
          <mxGeometry x="200" y="990" width="80" height="40" as="geometry" />
        </mxCell>
        <mxCell id="MYEUlOmizWU3UoJsxoME-50" value="" style="endArrow=none;html=1;rounded=0;strokeWidth=1;entryX=0;entryY=0.5;entryDx=0;entryDy=0;" parent="1" edge="1">
          <mxGeometry width="50" height="50" relative="1" as="geometry">
            <mxPoint x="180" y="1009.89" as="sourcePoint" />
            <mxPoint x="200" y="1009.89" as="targetPoint" />
          </mxGeometry>
        </mxCell>
        <mxCell id="MYEUlOmizWU3UoJsxoME-51" value="CPU" style="rounded=0;whiteSpace=wrap;html=1;" parent="1" vertex="1">
          <mxGeometry x="270" y="1040" width="80" height="30" as="geometry" />
        </mxCell>
        <mxCell id="MYEUlOmizWU3UoJsxoME-52" value="Memoriy" style="rounded=0;whiteSpace=wrap;html=1;" parent="1" vertex="1">
          <mxGeometry x="270" y="1080" width="80" height="30" as="geometry" />
        </mxCell>
        <mxCell id="MYEUlOmizWU3UoJsxoME-53" value="Disk I/O" style="rounded=0;whiteSpace=wrap;html=1;" parent="1" vertex="1">
          <mxGeometry x="270" y="1120" width="80" height="30" as="geometry" />
        </mxCell>
        <mxCell id="MYEUlOmizWU3UoJsxoME-54" value="Arrival Rate" style="rounded=0;whiteSpace=wrap;html=1;" parent="1" vertex="1">
          <mxGeometry x="270" y="1165" width="80" height="30" as="geometry" />
        </mxCell>
        <mxCell id="MYEUlOmizWU3UoJsxoME-55" value="" style="endArrow=none;html=1;rounded=0;strokeWidth=1;exitX=0.25;exitY=1;exitDx=0;exitDy=0;" parent="1" source="MYEUlOmizWU3UoJsxoME-49" edge="1">
          <mxGeometry width="50" height="50" relative="1" as="geometry">
            <mxPoint x="280" y="760" as="sourcePoint" />
            <mxPoint x="220" y="1180" as="targetPoint" />
          </mxGeometry>
        </mxCell>
        <mxCell id="MYEUlOmizWU3UoJsxoME-56" value="" style="endArrow=none;html=1;rounded=0;strokeWidth=1;entryX=0;entryY=0.5;entryDx=0;entryDy=0;" parent="1" target="MYEUlOmizWU3UoJsxoME-51" edge="1">
          <mxGeometry width="50" height="50" relative="1" as="geometry">
            <mxPoint x="220" y="1055" as="sourcePoint" />
            <mxPoint x="330" y="860" as="targetPoint" />
          </mxGeometry>
        </mxCell>
        <mxCell id="MYEUlOmizWU3UoJsxoME-57" value="" style="endArrow=none;html=1;rounded=0;strokeWidth=1;entryX=0;entryY=0.5;entryDx=0;entryDy=0;" parent="1" edge="1">
          <mxGeometry width="50" height="50" relative="1" as="geometry">
            <mxPoint x="220" y="1094.89" as="sourcePoint" />
            <mxPoint x="270" y="1094.89" as="targetPoint" />
          </mxGeometry>
        </mxCell>
        <mxCell id="MYEUlOmizWU3UoJsxoME-58" value="" style="endArrow=none;html=1;rounded=0;strokeWidth=1;entryX=0;entryY=0.5;entryDx=0;entryDy=0;" parent="1" edge="1">
          <mxGeometry width="50" height="50" relative="1" as="geometry">
            <mxPoint x="220" y="1134.89" as="sourcePoint" />
            <mxPoint x="270" y="1134.89" as="targetPoint" />
          </mxGeometry>
        </mxCell>
        <mxCell id="MYEUlOmizWU3UoJsxoME-59" value="" style="endArrow=none;html=1;rounded=0;strokeWidth=1;entryX=0;entryY=0.5;entryDx=0;entryDy=0;" parent="1" target="MYEUlOmizWU3UoJsxoME-54" edge="1">
          <mxGeometry width="50" height="50" relative="1" as="geometry">
            <mxPoint x="220" y="1180" as="sourcePoint" />
            <mxPoint x="270" y="1174.89" as="targetPoint" />
            <Array as="points">
              <mxPoint x="250" y="1180" />
            </Array>
          </mxGeometry>
        </mxCell>
        <mxCell id="MYEUlOmizWU3UoJsxoME-60" value="数据局部性" style="rounded=0;whiteSpace=wrap;html=1;" parent="1" vertex="1">
          <mxGeometry x="200" y="1220" width="80" height="40" as="geometry" />
        </mxCell>
        <mxCell id="MYEUlOmizWU3UoJsxoME-61" value="" style="endArrow=none;html=1;rounded=0;strokeWidth=1;entryX=0;entryY=0.5;entryDx=0;entryDy=0;" parent="1" target="MYEUlOmizWU3UoJsxoME-60" edge="1">
          <mxGeometry width="50" height="50" relative="1" as="geometry">
            <mxPoint x="180" y="1240" as="sourcePoint" />
            <mxPoint x="210" y="1019.8899999999999" as="targetPoint" />
          </mxGeometry>
        </mxCell>
        <mxCell id="MYEUlOmizWU3UoJsxoME-62" value="" style="endArrow=none;html=1;rounded=0;strokeWidth=1;exitX=0.5;exitY=1;exitDx=0;exitDy=0;" parent="1" edge="1">
          <mxGeometry width="50" height="50" relative="1" as="geometry">
            <mxPoint x="559.5" y="770" as="sourcePoint" />
            <mxPoint x="560" y="1110" as="targetPoint" />
          </mxGeometry>
        </mxCell>
        <mxCell id="MYEUlOmizWU3UoJsxoME-63" value="延迟" style="rounded=0;whiteSpace=wrap;html=1;" parent="1" vertex="1">
          <mxGeometry x="600" y="790" width="90" height="40" as="geometry" />
        </mxCell>
        <mxCell id="MYEUlOmizWU3UoJsxoME-64" value="吞吐量" style="rounded=0;whiteSpace=wrap;html=1;" parent="1" vertex="1">
          <mxGeometry x="600" y="850" width="90" height="40" as="geometry" />
        </mxCell>
        <mxCell id="MYEUlOmizWU3UoJsxoME-65" value="用户消费" style="rounded=0;whiteSpace=wrap;html=1;" parent="1" vertex="1">
          <mxGeometry x="600" y="910" width="90" height="40" as="geometry" />
        </mxCell>
        <mxCell id="MYEUlOmizWU3UoJsxoME-66" value="资源效率" style="rounded=0;whiteSpace=wrap;html=1;" parent="1" vertex="1">
          <mxGeometry x="600" y="970" width="90" height="40" as="geometry" />
        </mxCell>
        <mxCell id="MYEUlOmizWU3UoJsxoME-67" value="能源效率" style="rounded=0;whiteSpace=wrap;html=1;" parent="1" vertex="1">
          <mxGeometry x="600" y="1030" width="90" height="40" as="geometry" />
        </mxCell>
        <mxCell id="MYEUlOmizWU3UoJsxoME-68" value="安全性" style="rounded=0;whiteSpace=wrap;html=1;" parent="1" vertex="1">
          <mxGeometry x="600" y="1090" width="90" height="40" as="geometry" />
        </mxCell>
        <mxCell id="MYEUlOmizWU3UoJsxoME-70" value="" style="endArrow=none;html=1;rounded=0;strokeWidth=1;entryX=0;entryY=0.5;entryDx=0;entryDy=0;" parent="1" target="MYEUlOmizWU3UoJsxoME-63" edge="1">
          <mxGeometry width="50" height="50" relative="1" as="geometry">
            <mxPoint x="560" y="810" as="sourcePoint" />
            <mxPoint x="390" y="930" as="targetPoint" />
          </mxGeometry>
        </mxCell>
        <mxCell id="MYEUlOmizWU3UoJsxoME-71" value="" style="endArrow=none;html=1;rounded=0;strokeWidth=1;entryX=0;entryY=0.5;entryDx=0;entryDy=0;" parent="1" target="MYEUlOmizWU3UoJsxoME-64" edge="1">
          <mxGeometry width="50" height="50" relative="1" as="geometry">
            <mxPoint x="560" y="870" as="sourcePoint" />
            <mxPoint x="610" y="820" as="targetPoint" />
          </mxGeometry>
        </mxCell>
        <mxCell id="MYEUlOmizWU3UoJsxoME-72" value="" style="endArrow=none;html=1;rounded=0;strokeWidth=1;entryX=0;entryY=0.5;entryDx=0;entryDy=0;" parent="1" edge="1">
          <mxGeometry width="50" height="50" relative="1" as="geometry">
            <mxPoint x="559" y="931" as="sourcePoint" />
            <mxPoint x="599" y="931" as="targetPoint" />
          </mxGeometry>
        </mxCell>
        <mxCell id="MYEUlOmizWU3UoJsxoME-73" value="" style="endArrow=none;html=1;rounded=0;strokeWidth=1;entryX=0;entryY=0.5;entryDx=0;entryDy=0;" parent="1" edge="1">
          <mxGeometry width="50" height="50" relative="1" as="geometry">
            <mxPoint x="559" y="991" as="sourcePoint" />
            <mxPoint x="599" y="991" as="targetPoint" />
          </mxGeometry>
        </mxCell>
        <mxCell id="MYEUlOmizWU3UoJsxoME-74" value="" style="endArrow=none;html=1;rounded=0;strokeWidth=1;entryX=0;entryY=0.5;entryDx=0;entryDy=0;" parent="1" edge="1">
          <mxGeometry width="50" height="50" relative="1" as="geometry">
            <mxPoint x="559" y="1051" as="sourcePoint" />
            <mxPoint x="599" y="1051" as="targetPoint" />
          </mxGeometry>
        </mxCell>
        <mxCell id="MYEUlOmizWU3UoJsxoME-75" value="" style="endArrow=none;html=1;rounded=0;strokeWidth=1;entryX=0;entryY=0.5;entryDx=0;entryDy=0;" parent="1" edge="1">
          <mxGeometry width="50" height="50" relative="1" as="geometry">
            <mxPoint x="560" y="1109" as="sourcePoint" />
            <mxPoint x="600" y="1109" as="targetPoint" />
          </mxGeometry>
        </mxCell>
        <mxCell id="MYEUlOmizWU3UoJsxoME-77" value="应用负载模型" style="rounded=0;whiteSpace=wrap;html=1;" parent="1" vertex="1">
          <mxGeometry x="851" y="780" width="90" height="40" as="geometry" />
        </mxCell>
        <mxCell id="MYEUlOmizWU3UoJsxoME-78" value="资源调度" style="rounded=0;whiteSpace=wrap;html=1;" parent="1" vertex="1">
          <mxGeometry x="851" y="840" width="90" height="40" as="geometry" />
        </mxCell>
        <mxCell id="MYEUlOmizWU3UoJsxoME-79" value="资源扩展" style="rounded=0;whiteSpace=wrap;html=1;" parent="1" vertex="1">
          <mxGeometry x="851" y="900" width="90" height="40" as="geometry" />
        </mxCell>
        <mxCell id="MYEUlOmizWU3UoJsxoME-80" value="" style="endArrow=none;html=1;rounded=0;strokeWidth=1;entryX=0;entryY=0.5;entryDx=0;entryDy=0;" parent="1" target="MYEUlOmizWU3UoJsxoME-77" edge="1">
          <mxGeometry width="50" height="50" relative="1" as="geometry">
            <mxPoint x="810" y="800" as="sourcePoint" />
            <mxPoint x="641" y="920" as="targetPoint" />
          </mxGeometry>
        </mxCell>
        <mxCell id="MYEUlOmizWU3UoJsxoME-81" value="" style="endArrow=none;html=1;rounded=0;strokeWidth=1;entryX=0;entryY=0.5;entryDx=0;entryDy=0;" parent="1" target="MYEUlOmizWU3UoJsxoME-78" edge="1">
          <mxGeometry width="50" height="50" relative="1" as="geometry">
            <mxPoint x="810" y="860" as="sourcePoint" />
            <mxPoint x="861" y="810" as="targetPoint" />
          </mxGeometry>
        </mxCell>
        <mxCell id="MYEUlOmizWU3UoJsxoME-82" value="" style="endArrow=none;html=1;rounded=0;strokeWidth=1;" parent="1" edge="1">
          <mxGeometry width="50" height="50" relative="1" as="geometry">
            <mxPoint x="810" y="920" as="sourcePoint" />
            <mxPoint x="850" y="920" as="targetPoint" />
          </mxGeometry>
        </mxCell>
        <mxCell id="MYEUlOmizWU3UoJsxoME-83" value="" style="endArrow=none;html=1;rounded=0;strokeWidth=1;exitX=0.5;exitY=1;exitDx=0;exitDy=0;" parent="1" edge="1">
          <mxGeometry width="50" height="50" relative="1" as="geometry">
            <mxPoint x="809.75" y="770" as="sourcePoint" />
            <mxPoint x="810.25" y="920" as="targetPoint" />
          </mxGeometry>
        </mxCell>
      </root>
    </mxGraphModel>
  </diagram>
  <diagram name="Page-1" id="FEYqEAj2nyRrMUgpwWxD">
    <mxGraphModel dx="1434" dy="764" grid="1" gridSize="10" guides="1" tooltips="1" connect="1" arrows="1" fold="1" page="1" pageScale="1" pageWidth="827" pageHeight="1169" math="0" shadow="0">
      <root>
        <mxCell id="0" />
        <mxCell id="1" parent="0" />
        <mxCell id="oJGpAC8QhAhpul6vFdml-3" value="" style="edgeStyle=orthogonalEdgeStyle;rounded=0;orthogonalLoop=1;jettySize=auto;html=1;dashed=1;" parent="1" source="oJGpAC8QhAhpul6vFdml-1" target="oJGpAC8QhAhpul6vFdml-2" edge="1">
          <mxGeometry relative="1" as="geometry" />
        </mxCell>
        <mxCell id="oJGpAC8QhAhpul6vFdml-1" value="Prometheus" style="text;html=1;strokeColor=none;fillColor=none;align=center;verticalAlign=middle;whiteSpace=wrap;rounded=0;" parent="1" vertex="1">
          <mxGeometry x="354" y="30" width="60" height="30" as="geometry" />
        </mxCell>
        <mxCell id="oJGpAC8QhAhpul6vFdml-2" value="数据源" style="ellipse;whiteSpace=wrap;html=1;sketch=1;" parent="1" vertex="1">
          <mxGeometry x="324" y="100" width="120" height="60" as="geometry" />
        </mxCell>
        <mxCell id="oJGpAC8QhAhpul6vFdml-4" value="" style="rounded=0;whiteSpace=wrap;html=1;sketch=1;fillColor=#FFFFFF;strokeColor=#82b366;" parent="1" vertex="1">
          <mxGeometry x="134" y="200" width="500" height="130" as="geometry" />
        </mxCell>
        <mxCell id="oJGpAC8QhAhpul6vFdml-6" value="按pod分类" style="rounded=0;whiteSpace=wrap;html=1;sketch=1;fillColor=#ffe6cc;strokeColor=#d79b00;" parent="1" vertex="1">
          <mxGeometry x="160" y="240" width="120" height="60" as="geometry" />
        </mxCell>
        <mxCell id="oJGpAC8QhAhpul6vFdml-8" value="数据补全" style="rounded=0;whiteSpace=wrap;html=1;sketch=1;fillColor=#ffe6cc;strokeColor=#d79b00;" parent="1" vertex="1">
          <mxGeometry x="324" y="240" width="120" height="60" as="geometry" />
        </mxCell>
        <mxCell id="oJGpAC8QhAhpul6vFdml-9" value="指标筛选" style="rounded=0;whiteSpace=wrap;html=1;sketch=1;fillColor=#ffe6cc;strokeColor=#d79b00;" parent="1" vertex="1">
          <mxGeometry x="490" y="240" width="120" height="60" as="geometry" />
        </mxCell>
        <mxCell id="oJGpAC8QhAhpul6vFdml-10" value="" style="endArrow=classic;html=1;rounded=0;exitX=0.5;exitY=1;exitDx=0;exitDy=0;entryX=0.5;entryY=0;entryDx=0;entryDy=0;" parent="1" source="oJGpAC8QhAhpul6vFdml-2" target="oJGpAC8QhAhpul6vFdml-8" edge="1">
          <mxGeometry relative="1" as="geometry">
            <mxPoint x="354" y="170" as="sourcePoint" />
            <mxPoint x="454" y="170" as="targetPoint" />
          </mxGeometry>
        </mxCell>
        <mxCell id="oJGpAC8QhAhpul6vFdml-11" value="数据预处理" style="edgeLabel;resizable=0;html=1;align=center;verticalAlign=middle;sketch=1;fillColor=#FFFFFF;" parent="oJGpAC8QhAhpul6vFdml-10" connectable="0" vertex="1">
          <mxGeometry relative="1" as="geometry" />
        </mxCell>
        <mxCell id="oJGpAC8QhAhpul6vFdml-12" value="" style="endArrow=none;html=1;rounded=0;entryX=0.5;entryY=1;entryDx=0;entryDy=0;" parent="1" target="oJGpAC8QhAhpul6vFdml-8" edge="1">
          <mxGeometry width="50" height="50" relative="1" as="geometry">
            <mxPoint x="384" y="360" as="sourcePoint" />
            <mxPoint x="470" y="330" as="targetPoint" />
          </mxGeometry>
        </mxCell>
        <mxCell id="oJGpAC8QhAhpul6vFdml-13" value="数据分类" style="text;html=1;strokeColor=none;fillColor=none;align=center;verticalAlign=middle;whiteSpace=wrap;rounded=0;sketch=1;" parent="1" vertex="1">
          <mxGeometry x="354" y="353" width="60" height="30" as="geometry" />
        </mxCell>
        <mxCell id="oJGpAC8QhAhpul6vFdml-23" value="" style="edgeStyle=elbowEdgeStyle;elbow=vertical;endArrow=classic;html=1;rounded=0;exitX=0.5;exitY=1;exitDx=0;exitDy=0;" parent="1" source="oJGpAC8QhAhpul6vFdml-13" edge="1">
          <mxGeometry width="50" height="50" relative="1" as="geometry">
            <mxPoint x="460" y="380" as="sourcePoint" />
            <mxPoint x="570" y="430" as="targetPoint" />
            <Array as="points">
              <mxPoint x="630" y="380" />
            </Array>
          </mxGeometry>
        </mxCell>
        <mxCell id="oJGpAC8QhAhpul6vFdml-24" value="资源数据" style="edgeLabel;html=1;align=center;verticalAlign=middle;resizable=0;points=[];" parent="oJGpAC8QhAhpul6vFdml-23" vertex="1" connectable="0">
          <mxGeometry x="0.1444" y="1" relative="1" as="geometry">
            <mxPoint as="offset" />
          </mxGeometry>
        </mxCell>
        <mxCell id="oJGpAC8QhAhpul6vFdml-25" value="" style="edgeStyle=elbowEdgeStyle;elbow=vertical;endArrow=classic;html=1;rounded=0;exitX=0.5;exitY=1;exitDx=0;exitDy=0;" parent="1" source="oJGpAC8QhAhpul6vFdml-13" edge="1">
          <mxGeometry width="50" height="50" relative="1" as="geometry">
            <mxPoint x="160" y="380" as="sourcePoint" />
            <mxPoint x="210" y="430" as="targetPoint" />
            <Array as="points">
              <mxPoint x="280" y="380" />
              <mxPoint x="320" y="380" />
              <mxPoint x="230" y="380" />
              <mxPoint x="220" y="400" />
            </Array>
          </mxGeometry>
        </mxCell>
        <mxCell id="oJGpAC8QhAhpul6vFdml-26" value="时序数据" style="edgeLabel;html=1;align=center;verticalAlign=middle;resizable=0;points=[];" parent="oJGpAC8QhAhpul6vFdml-25" vertex="1" connectable="0">
          <mxGeometry x="0.1444" y="1" relative="1" as="geometry">
            <mxPoint as="offset" />
          </mxGeometry>
        </mxCell>
        <mxCell id="oJGpAC8QhAhpul6vFdml-27" value="" style="ellipse;whiteSpace=wrap;html=1;sketch=1;fillColor=#f5f5f5;fontColor=#333333;strokeColor=#666666;dashed=1;" parent="1" vertex="1">
          <mxGeometry x="80" y="430" width="260" height="130" as="geometry" />
        </mxCell>
        <mxCell id="oJGpAC8QhAhpul6vFdml-48" value="" style="edgeStyle=orthogonalEdgeStyle;rounded=0;orthogonalLoop=1;jettySize=auto;html=1;" parent="1" source="oJGpAC8QhAhpul6vFdml-28" target="oJGpAC8QhAhpul6vFdml-47" edge="1">
          <mxGeometry relative="1" as="geometry" />
        </mxCell>
        <mxCell id="oJGpAC8QhAhpul6vFdml-28" value="" style="ellipse;whiteSpace=wrap;html=1;sketch=1;fillColor=#f5f5f5;dashed=1;fontColor=#333333;strokeColor=#666666;" parent="1" vertex="1">
          <mxGeometry x="444" y="430" width="254" height="130" as="geometry" />
        </mxCell>
        <mxCell id="oJGpAC8QhAhpul6vFdml-34" value="" style="edgeStyle=orthogonalEdgeStyle;rounded=0;orthogonalLoop=1;jettySize=auto;html=1;" parent="1" source="oJGpAC8QhAhpul6vFdml-29" target="oJGpAC8QhAhpul6vFdml-33" edge="1">
          <mxGeometry relative="1" as="geometry" />
        </mxCell>
        <mxCell id="oJGpAC8QhAhpul6vFdml-29" value="周期性pod" style="whiteSpace=wrap;html=1;aspect=fixed;sketch=1;fillColor=#fff2cc;strokeColor=#d6b656;" parent="1" vertex="1">
          <mxGeometry x="130" y="462.5" width="65" height="65" as="geometry" />
        </mxCell>
        <mxCell id="oJGpAC8QhAhpul6vFdml-30" value="非周期性&lt;br&gt;pod" style="whiteSpace=wrap;html=1;aspect=fixed;sketch=1;fillColor=#fff2cc;strokeColor=#d6b656;" parent="1" vertex="1">
          <mxGeometry x="230" y="462.5" width="65" height="65" as="geometry" />
        </mxCell>
        <mxCell id="oJGpAC8QhAhpul6vFdml-31" value="" style="endArrow=classic;startArrow=classic;html=1;rounded=0;exitX=0;exitY=0.5;exitDx=0;exitDy=0;" parent="1" source="oJGpAC8QhAhpul6vFdml-27" edge="1">
          <mxGeometry width="50" height="50" relative="1" as="geometry">
            <mxPoint x="110" y="320" as="sourcePoint" />
            <mxPoint x="160" y="270" as="targetPoint" />
            <Array as="points">
              <mxPoint x="50" y="495" />
              <mxPoint x="50" y="270" />
            </Array>
          </mxGeometry>
        </mxCell>
        <mxCell id="oJGpAC8QhAhpul6vFdml-36" value="" style="edgeStyle=orthogonalEdgeStyle;rounded=0;orthogonalLoop=1;jettySize=auto;html=1;" parent="1" source="oJGpAC8QhAhpul6vFdml-33" target="oJGpAC8QhAhpul6vFdml-35" edge="1">
          <mxGeometry relative="1" as="geometry" />
        </mxCell>
        <mxCell id="oJGpAC8QhAhpul6vFdml-33" value="提取特征" style="rhombus;whiteSpace=wrap;html=1;fillColor=#d5e8d4;strokeColor=#82b366;sketch=1;" parent="1" vertex="1">
          <mxGeometry x="123.75" y="600" width="77.5" height="60" as="geometry" />
        </mxCell>
        <mxCell id="oJGpAC8QhAhpul6vFdml-38" value="" style="edgeStyle=orthogonalEdgeStyle;rounded=0;orthogonalLoop=1;jettySize=auto;html=1;entryX=0.5;entryY=0;entryDx=0;entryDy=0;" parent="1" source="oJGpAC8QhAhpul6vFdml-35" target="oJGpAC8QhAhpul6vFdml-41" edge="1">
          <mxGeometry relative="1" as="geometry">
            <mxPoint x="162.5" y="800" as="targetPoint" />
          </mxGeometry>
        </mxCell>
        <mxCell id="oJGpAC8QhAhpul6vFdml-35" value="主周期判断" style="rhombus;whiteSpace=wrap;html=1;fillColor=#d5e8d4;strokeColor=#82b366;sketch=1;" parent="1" vertex="1">
          <mxGeometry x="123.75" y="680" width="77.5" height="60" as="geometry" />
        </mxCell>
        <mxCell id="oJGpAC8QhAhpul6vFdml-41" value="&lt;span style=&quot;caret-color: rgb(0, 0, 0); color: rgb(0, 0, 0); font-family: Helvetica; font-size: 12px; font-style: normal; font-variant-caps: normal; font-weight: 400; letter-spacing: normal; text-align: center; text-indent: 0px; text-transform: none; word-spacing: 0px; -webkit-text-stroke-width: 0px; background-color: rgb(248, 249, 250); text-decoration: none; float: none; display: inline !important;&quot;&gt;预测（参考go-dsp计算FFT函数）&lt;/span&gt;" style="rounded=1;whiteSpace=wrap;html=1;sketch=1;fillColor=#FFFFFF;" parent="1" vertex="1">
          <mxGeometry x="102.5" y="780" width="120" height="60" as="geometry" />
        </mxCell>
        <mxCell id="oJGpAC8QhAhpul6vFdml-42" value="启发式方法" style="endArrow=classic;html=1;rounded=0;exitX=0.5;exitY=1;exitDx=0;exitDy=0;entryX=0.5;entryY=0;entryDx=0;entryDy=0;" parent="1" source="oJGpAC8QhAhpul6vFdml-30" target="oJGpAC8QhAhpul6vFdml-43" edge="1">
          <mxGeometry width="50" height="50" relative="1" as="geometry">
            <mxPoint x="350" y="660" as="sourcePoint" />
            <mxPoint x="270" y="800" as="targetPoint" />
            <Array as="points">
              <mxPoint x="263" y="670" />
              <mxPoint x="330" y="670" />
            </Array>
          </mxGeometry>
        </mxCell>
        <mxCell id="oJGpAC8QhAhpul6vFdml-43" value="&lt;span style=&quot;caret-color: rgb(0, 0, 0); color: rgb(0, 0, 0); font-family: Helvetica; font-size: 12px; font-style: normal; font-variant-caps: normal; font-weight: 400; letter-spacing: normal; text-align: center; text-indent: 0px; text-transform: none; word-spacing: 0px; -webkit-text-stroke-width: 0px; background-color: rgb(248, 249, 250); text-decoration: none; float: none; display: inline !important;&quot;&gt;预测（参考上月、上年同期记录等）&lt;/span&gt;" style="rounded=1;whiteSpace=wrap;html=1;sketch=1;fillColor=#FFFFFF;" parent="1" vertex="1">
          <mxGeometry x="270" y="780" width="120" height="60" as="geometry" />
        </mxCell>
        <mxCell id="oJGpAC8QhAhpul6vFdml-44" value="真实负载" style="whiteSpace=wrap;html=1;aspect=fixed;sketch=1;fillColor=#fff2cc;strokeColor=#d6b656;" parent="1" vertex="1">
          <mxGeometry x="480" y="462.5" width="65" height="65" as="geometry" />
        </mxCell>
        <mxCell id="oJGpAC8QhAhpul6vFdml-45" value="资源差值" style="whiteSpace=wrap;html=1;aspect=fixed;sketch=1;fillColor=#fff2cc;strokeColor=#d6b656;" parent="1" vertex="1">
          <mxGeometry x="560" y="462.5" width="65" height="65" as="geometry" />
        </mxCell>
        <mxCell id="oJGpAC8QhAhpul6vFdml-46" value="..." style="text;html=1;strokeColor=none;fillColor=none;align=center;verticalAlign=middle;whiteSpace=wrap;rounded=0;sketch=1;" parent="1" vertex="1">
          <mxGeometry x="610" y="480" width="60" height="30" as="geometry" />
        </mxCell>
        <mxCell id="oJGpAC8QhAhpul6vFdml-53" value="" style="edgeStyle=orthogonalEdgeStyle;rounded=0;orthogonalLoop=1;jettySize=auto;html=1;" parent="1" source="oJGpAC8QhAhpul6vFdml-47" target="oJGpAC8QhAhpul6vFdml-52" edge="1">
          <mxGeometry relative="1" as="geometry" />
        </mxCell>
        <mxCell id="oJGpAC8QhAhpul6vFdml-47" value="仿插件计算，但不执行调度" style="rhombus;whiteSpace=wrap;html=1;sketch=1;fillColor=#d5e8d4;strokeColor=#82b366;" parent="1" vertex="1">
          <mxGeometry x="521" y="620" width="100" height="90" as="geometry" />
        </mxCell>
        <mxCell id="oJGpAC8QhAhpul6vFdml-49" value="" style="endArrow=classic;startArrow=classic;html=1;rounded=0;exitX=1;exitY=0.5;exitDx=0;exitDy=0;entryX=1;entryY=0.5;entryDx=0;entryDy=0;" parent="1" source="oJGpAC8QhAhpul6vFdml-28" target="oJGpAC8QhAhpul6vFdml-4" edge="1">
          <mxGeometry width="50" height="50" relative="1" as="geometry">
            <mxPoint x="759.9999999999994" y="505" as="sourcePoint" />
            <mxPoint x="840" y="280" as="targetPoint" />
            <Array as="points">
              <mxPoint x="730" y="495" />
              <mxPoint x="730" y="265" />
            </Array>
          </mxGeometry>
        </mxCell>
        <mxCell id="oJGpAC8QhAhpul6vFdml-52" value="评价（根据得分输出不合理的资源分布）" style="rounded=1;whiteSpace=wrap;html=1;sketch=1;" parent="1" vertex="1">
          <mxGeometry x="511" y="780" width="120" height="60" as="geometry" />
        </mxCell>
        <mxCell id="oJGpAC8QhAhpul6vFdml-54" value="输出结果" style="strokeWidth=2;html=1;shape=mxgraph.flowchart.database;whiteSpace=wrap;sketch=1;fillColor=#fff2cc;strokeColor=#d6b656;" parent="1" vertex="1">
          <mxGeometry x="357" y="900" width="60" height="60" as="geometry" />
        </mxCell>
        <mxCell id="oJGpAC8QhAhpul6vFdml-58" value="" style="edgeStyle=orthogonalEdgeStyle;rounded=0;orthogonalLoop=1;jettySize=auto;html=1;" parent="1" source="oJGpAC8QhAhpul6vFdml-55" target="oJGpAC8QhAhpul6vFdml-54" edge="1">
          <mxGeometry relative="1" as="geometry" />
        </mxCell>
        <mxCell id="oJGpAC8QhAhpul6vFdml-55" value="" style="verticalLabelPosition=bottom;verticalAlign=top;html=1;shape=mxgraph.basic.rect;fillColor2=none;strokeWidth=1;size=20;indent=5;sketch=1;fillColor=none;strokeColor=#82b366;" parent="1" vertex="1">
          <mxGeometry x="47" y="586" width="680" height="274" as="geometry" />
        </mxCell>
        <mxCell id="oJGpAC8QhAhpul6vFdml-56" value="Calculate" style="text;html=1;strokeColor=none;fillColor=none;align=center;verticalAlign=middle;whiteSpace=wrap;rounded=0;sketch=1;" parent="1" vertex="1">
          <mxGeometry x="50" y="585" width="60" height="30" as="geometry" />
        </mxCell>
        <mxCell id="oJGpAC8QhAhpul6vFdml-57" value="Preprocess" style="text;html=1;strokeColor=none;fillColor=none;align=center;verticalAlign=middle;whiteSpace=wrap;rounded=0;sketch=1;" parent="1" vertex="1">
          <mxGeometry x="138.25" y="199" width="60" height="30" as="geometry" />
        </mxCell>
      </root>
    </mxGraphModel>
  </diagram>
  <diagram name="Page-2" id="5Uw8Xsws44JOFozxvUq5">
    <mxGraphModel dx="1434" dy="764" grid="1" gridSize="10" guides="1" tooltips="1" connect="1" arrows="1" fold="1" page="1" pageScale="1" pageWidth="827" pageHeight="1169" math="0" shadow="0">
      <root>
        <mxCell id="0" />
        <mxCell id="1" parent="0" />
        <mxCell id="vX2QLoIVe_ydxAlUTGd6-1" value="" style="rounded=0;whiteSpace=wrap;html=1;fillColor=#f5f5f5;fontColor=#333333;strokeColor=#666666;" vertex="1" parent="1">
          <mxGeometry x="30" y="230" width="710" height="480" as="geometry" />
        </mxCell>
        <mxCell id="vX2QLoIVe_ydxAlUTGd6-2" value="&lt;b&gt;&lt;font style=&quot;font-size: 14px;&quot;&gt;Master&lt;/font&gt;&lt;/b&gt;" style="text;html=1;strokeColor=none;fillColor=none;align=center;verticalAlign=middle;whiteSpace=wrap;rounded=0;" vertex="1" parent="1">
          <mxGeometry x="60" y="250" width="60" height="30" as="geometry" />
        </mxCell>
        <mxCell id="vX2QLoIVe_ydxAlUTGd6-40" style="edgeStyle=orthogonalEdgeStyle;rounded=0;orthogonalLoop=1;jettySize=auto;html=1;exitX=0.5;exitY=1;exitDx=0;exitDy=0;entryX=0.5;entryY=0;entryDx=0;entryDy=0;entryPerimeter=0;" edge="1" parent="1" source="vX2QLoIVe_ydxAlUTGd6-6" target="vX2QLoIVe_ydxAlUTGd6-7">
          <mxGeometry relative="1" as="geometry" />
        </mxCell>
        <mxCell id="vX2QLoIVe_ydxAlUTGd6-6" value="&lt;b&gt;&lt;font style=&quot;font-size: 14px;&quot;&gt;api server&lt;/font&gt;&lt;/b&gt;" style="rounded=0;whiteSpace=wrap;html=1;fillColor=#d5e8d4;strokeColor=#82b366;" vertex="1" parent="1">
          <mxGeometry x="331.5" y="280" width="135" height="50" as="geometry" />
        </mxCell>
        <mxCell id="vX2QLoIVe_ydxAlUTGd6-7" value="&lt;b&gt;&lt;font style=&quot;font-size: 14px;&quot;&gt;etcd&lt;/font&gt;&lt;/b&gt;" style="strokeWidth=2;html=1;shape=mxgraph.flowchart.database;whiteSpace=wrap;fillColor=#d5e8d4;strokeColor=#82b366;" vertex="1" parent="1">
          <mxGeometry x="354" y="470" width="90" height="55" as="geometry" />
        </mxCell>
        <mxCell id="vX2QLoIVe_ydxAlUTGd6-8" value="" style="rounded=0;whiteSpace=wrap;html=1;fillColor=#f5f5f5;fontColor=#333333;strokeColor=#666666;" vertex="1" parent="1">
          <mxGeometry x="30" y="790" width="700" height="160" as="geometry" />
        </mxCell>
        <mxCell id="vX2QLoIVe_ydxAlUTGd6-9" value="" style="rounded=0;whiteSpace=wrap;html=1;fillColor=#f5f5f5;fontColor=#333333;strokeColor=#666666;" vertex="1" parent="1">
          <mxGeometry x="40" y="780" width="700" height="160" as="geometry" />
        </mxCell>
        <mxCell id="vX2QLoIVe_ydxAlUTGd6-10" value="" style="rounded=0;whiteSpace=wrap;html=1;fillColor=#f5f5f5;fontColor=#333333;strokeColor=#666666;" vertex="1" parent="1">
          <mxGeometry x="50" y="770" width="700" height="160" as="geometry" />
        </mxCell>
        <mxCell id="vX2QLoIVe_ydxAlUTGd6-11" value="&lt;b&gt;&lt;font style=&quot;font-size: 14px;&quot;&gt;Node&lt;/font&gt;&lt;/b&gt;" style="text;html=1;strokeColor=none;fillColor=none;align=center;verticalAlign=middle;whiteSpace=wrap;rounded=0;" vertex="1" parent="1">
          <mxGeometry x="70" y="780" width="60" height="30" as="geometry" />
        </mxCell>
        <mxCell id="vX2QLoIVe_ydxAlUTGd6-12" value="Decima-Agent" style="rounded=0;whiteSpace=wrap;html=1;fillColor=#ffe6cc;strokeColor=#d79b00;" vertex="1" parent="1">
          <mxGeometry x="551.88" y="826.25" width="141.25" height="53.75" as="geometry" />
        </mxCell>
        <mxCell id="vX2QLoIVe_ydxAlUTGd6-82" style="edgeStyle=orthogonalEdgeStyle;rounded=0;orthogonalLoop=1;jettySize=auto;html=1;exitX=0.5;exitY=0;exitDx=0;exitDy=0;entryX=0.5;entryY=1;entryDx=0;entryDy=0;" edge="1" parent="1" source="vX2QLoIVe_ydxAlUTGd6-13" target="vX2QLoIVe_ydxAlUTGd6-1">
          <mxGeometry relative="1" as="geometry" />
        </mxCell>
        <mxCell id="vX2QLoIVe_ydxAlUTGd6-13" value="Kubelet" style="rounded=0;whiteSpace=wrap;html=1;fillColor=#d5e8d4;strokeColor=#82b366;" vertex="1" parent="1">
          <mxGeometry x="315" y="827.5" width="140" height="52.5" as="geometry" />
        </mxCell>
        <mxCell id="vX2QLoIVe_ydxAlUTGd6-14" value="Kube-proxy" style="rounded=0;whiteSpace=wrap;html=1;fillColor=#d5e8d4;strokeColor=#82b366;" vertex="1" parent="1">
          <mxGeometry x="120" y="827.5" width="140" height="52.5" as="geometry" />
        </mxCell>
        <mxCell id="vX2QLoIVe_ydxAlUTGd6-37" style="edgeStyle=orthogonalEdgeStyle;rounded=0;orthogonalLoop=1;jettySize=auto;html=1;exitX=0.5;exitY=1;exitDx=0;exitDy=0;entryX=0.5;entryY=0;entryDx=0;entryDy=0;" edge="1" parent="1" source="vX2QLoIVe_ydxAlUTGd6-18" target="vX2QLoIVe_ydxAlUTGd6-6">
          <mxGeometry relative="1" as="geometry" />
        </mxCell>
        <mxCell id="vX2QLoIVe_ydxAlUTGd6-18" value="kubectl" style="rhombus;whiteSpace=wrap;html=1;" vertex="1" parent="1">
          <mxGeometry x="354" y="140" width="90" height="50" as="geometry" />
        </mxCell>
        <mxCell id="vX2QLoIVe_ydxAlUTGd6-61" style="edgeStyle=orthogonalEdgeStyle;rounded=0;orthogonalLoop=1;jettySize=auto;html=1;exitX=1;exitY=0.5;exitDx=0;exitDy=0;entryX=0.5;entryY=1;entryDx=0;entryDy=0;" edge="1" parent="1" source="vX2QLoIVe_ydxAlUTGd6-19" target="vX2QLoIVe_ydxAlUTGd6-57">
          <mxGeometry relative="1" as="geometry" />
        </mxCell>
        <mxCell id="vX2QLoIVe_ydxAlUTGd6-75" style="edgeStyle=orthogonalEdgeStyle;rounded=0;orthogonalLoop=1;jettySize=auto;html=1;exitX=0.5;exitY=0;exitDx=0;exitDy=0;entryX=0.75;entryY=1;entryDx=0;entryDy=0;" edge="1" parent="1" source="vX2QLoIVe_ydxAlUTGd6-19" target="vX2QLoIVe_ydxAlUTGd6-6">
          <mxGeometry relative="1" as="geometry" />
        </mxCell>
        <mxCell id="vX2QLoIVe_ydxAlUTGd6-81" style="edgeStyle=orthogonalEdgeStyle;rounded=0;orthogonalLoop=1;jettySize=auto;html=1;exitX=0.5;exitY=1;exitDx=0;exitDy=0;entryX=0;entryY=0.5;entryDx=0;entryDy=0;dashed=1;" edge="1" parent="1" source="vX2QLoIVe_ydxAlUTGd6-19" target="vX2QLoIVe_ydxAlUTGd6-12">
          <mxGeometry relative="1" as="geometry" />
        </mxCell>
        <mxCell id="vX2QLoIVe_ydxAlUTGd6-19" value="&lt;b&gt;&lt;font style=&quot;font-size: 14px;&quot;&gt;Prometheus&lt;/font&gt;&lt;/b&gt;" style="shape=datastore;whiteSpace=wrap;html=1;fillColor=#d5e8d4;strokeColor=#82b366;" vertex="1" parent="1">
          <mxGeometry x="420" y="590" width="100" height="60" as="geometry" />
        </mxCell>
        <mxCell id="vX2QLoIVe_ydxAlUTGd6-42" style="edgeStyle=orthogonalEdgeStyle;rounded=0;orthogonalLoop=1;jettySize=auto;html=1;exitX=0.5;exitY=1;exitDx=0;exitDy=0;entryX=1;entryY=0.25;entryDx=0;entryDy=0;" edge="1" parent="1" source="vX2QLoIVe_ydxAlUTGd6-20" target="vX2QLoIVe_ydxAlUTGd6-6">
          <mxGeometry relative="1" as="geometry" />
        </mxCell>
        <mxCell id="vX2QLoIVe_ydxAlUTGd6-20" value="sparkctl" style="rhombus;whiteSpace=wrap;html=1;" vertex="1" parent="1">
          <mxGeometry x="480" y="140" width="90" height="50" as="geometry" />
        </mxCell>
        <mxCell id="vX2QLoIVe_ydxAlUTGd6-74" style="edgeStyle=orthogonalEdgeStyle;rounded=0;orthogonalLoop=1;jettySize=auto;html=1;exitX=1;exitY=0.5;exitDx=0;exitDy=0;entryX=0;entryY=0.5;entryDx=0;entryDy=0;" edge="1" parent="1" source="vX2QLoIVe_ydxAlUTGd6-27" target="vX2QLoIVe_ydxAlUTGd6-19">
          <mxGeometry relative="1" as="geometry">
            <Array as="points">
              <mxPoint x="324" y="620" />
            </Array>
          </mxGeometry>
        </mxCell>
        <mxCell id="vX2QLoIVe_ydxAlUTGd6-27" value="" style="rounded=1;whiteSpace=wrap;html=1;dashed=1;fillColor=#dae8fc;strokeColor=#6c8ebf;" vertex="1" parent="1">
          <mxGeometry x="86.25" y="550" width="237.5" height="150" as="geometry" />
        </mxCell>
        <mxCell id="vX2QLoIVe_ydxAlUTGd6-28" value="Driver Pod" style="rounded=0;whiteSpace=wrap;html=1;" vertex="1" parent="1">
          <mxGeometry x="165" y="580" width="80" height="45" as="geometry" />
        </mxCell>
        <mxCell id="vX2QLoIVe_ydxAlUTGd6-29" value="Executor Pod" style="rounded=0;whiteSpace=wrap;html=1;" vertex="1" parent="1">
          <mxGeometry x="120" y="640" width="80" height="45" as="geometry" />
        </mxCell>
        <mxCell id="vX2QLoIVe_ydxAlUTGd6-30" value="Executor Pod" style="rounded=0;whiteSpace=wrap;html=1;" vertex="1" parent="1">
          <mxGeometry x="220" y="640" width="80" height="45" as="geometry" />
        </mxCell>
        <mxCell id="vX2QLoIVe_ydxAlUTGd6-31" value="&lt;font style=&quot;font-size: 14px;&quot;&gt;&lt;b&gt;Kubelet&lt;/b&gt;&lt;/font&gt;" style="text;html=1;strokeColor=none;fillColor=none;align=center;verticalAlign=middle;whiteSpace=wrap;rounded=0;" vertex="1" parent="1">
          <mxGeometry x="150" y="550" width="110" height="30" as="geometry" />
        </mxCell>
        <mxCell id="vX2QLoIVe_ydxAlUTGd6-33" value="" style="rounded=1;whiteSpace=wrap;html=1;dashed=1;fillColor=#dae8fc;strokeColor=#6c8ebf;" vertex="1" parent="1">
          <mxGeometry x="535" y="310" width="175" height="170" as="geometry" />
        </mxCell>
        <mxCell id="vX2QLoIVe_ydxAlUTGd6-48" style="edgeStyle=orthogonalEdgeStyle;rounded=0;orthogonalLoop=1;jettySize=auto;html=1;exitX=0;exitY=0.5;exitDx=0;exitDy=0;entryX=1;entryY=0.75;entryDx=0;entryDy=0;dashed=1;" edge="1" parent="1" source="vX2QLoIVe_ydxAlUTGd6-34" target="vX2QLoIVe_ydxAlUTGd6-6">
          <mxGeometry relative="1" as="geometry" />
        </mxCell>
        <mxCell id="vX2QLoIVe_ydxAlUTGd6-49" value="List&amp;amp;watch" style="edgeLabel;html=1;align=center;verticalAlign=middle;resizable=0;points=[];" vertex="1" connectable="0" parent="vX2QLoIVe_ydxAlUTGd6-48">
          <mxGeometry x="-0.1217" y="-1" relative="1" as="geometry">
            <mxPoint x="1" as="offset" />
          </mxGeometry>
        </mxCell>
        <mxCell id="vX2QLoIVe_ydxAlUTGd6-34" value="Venus Controller" style="rounded=0;whiteSpace=wrap;html=1;" vertex="1" parent="1">
          <mxGeometry x="572.5" y="360" width="100" height="40" as="geometry" />
        </mxCell>
        <mxCell id="vX2QLoIVe_ydxAlUTGd6-60" style="edgeStyle=orthogonalEdgeStyle;rounded=0;orthogonalLoop=1;jettySize=auto;html=1;exitX=1;exitY=0.5;exitDx=0;exitDy=0;entryX=0.008;entryY=0.454;entryDx=0;entryDy=0;entryPerimeter=0;" edge="1" parent="1" source="vX2QLoIVe_ydxAlUTGd6-35" target="vX2QLoIVe_ydxAlUTGd6-57">
          <mxGeometry relative="1" as="geometry" />
        </mxCell>
        <mxCell id="vX2QLoIVe_ydxAlUTGd6-35" value="Venus Scheduler" style="rounded=0;whiteSpace=wrap;html=1;" vertex="1" parent="1">
          <mxGeometry x="572.5" y="422.5" width="100" height="40" as="geometry" />
        </mxCell>
        <mxCell id="vX2QLoIVe_ydxAlUTGd6-36" value="&lt;b&gt;&lt;font style=&quot;font-size: 14px;&quot;&gt;Venus&lt;/font&gt;&lt;/b&gt;" style="text;html=1;strokeColor=none;fillColor=none;align=center;verticalAlign=middle;whiteSpace=wrap;rounded=0;" vertex="1" parent="1">
          <mxGeometry x="510" y="320" width="110" height="30" as="geometry" />
        </mxCell>
        <mxCell id="vX2QLoIVe_ydxAlUTGd6-51" style="edgeStyle=orthogonalEdgeStyle;rounded=0;orthogonalLoop=1;jettySize=auto;html=1;exitX=1;exitY=1;exitDx=0;exitDy=0;entryX=0;entryY=0.5;entryDx=0;entryDy=0;" edge="1" parent="1" source="vX2QLoIVe_ydxAlUTGd6-6" target="vX2QLoIVe_ydxAlUTGd6-35">
          <mxGeometry relative="1" as="geometry">
            <Array as="points">
              <mxPoint x="460" y="330" />
              <mxPoint x="460" y="443" />
            </Array>
          </mxGeometry>
        </mxCell>
        <mxCell id="vX2QLoIVe_ydxAlUTGd6-57" value="" style="rounded=0;whiteSpace=wrap;html=1;fillColor=#dae8fc;strokeColor=#6c8ebf;" vertex="1" parent="1">
          <mxGeometry x="790" y="360" width="70" height="180" as="geometry" />
        </mxCell>
        <mxCell id="vX2QLoIVe_ydxAlUTGd6-59" value="&lt;b&gt;&lt;font style=&quot;font-size: 14px;&quot;&gt;WebUI&lt;/font&gt;&lt;/b&gt;" style="text;html=1;strokeColor=none;fillColor=none;align=center;verticalAlign=middle;whiteSpace=wrap;rounded=0;" vertex="1" parent="1">
          <mxGeometry x="790" y="370" width="60" height="30" as="geometry" />
        </mxCell>
        <mxCell id="vX2QLoIVe_ydxAlUTGd6-73" value="" style="group" vertex="1" connectable="0" parent="1">
          <mxGeometry x="46.25" y="300" width="240" height="240" as="geometry" />
        </mxCell>
        <mxCell id="vX2QLoIVe_ydxAlUTGd6-3" value="" style="rounded=1;whiteSpace=wrap;html=1;dashed=1;fillColor=#ffe6cc;strokeColor=#d79b00;" vertex="1" parent="vX2QLoIVe_ydxAlUTGd6-73">
          <mxGeometry width="240" height="240" as="geometry" />
        </mxCell>
        <mxCell id="vX2QLoIVe_ydxAlUTGd6-4" value="&lt;b&gt;&lt;font style=&quot;font-size: 14px;&quot;&gt;Spark Operator&lt;/font&gt;&lt;/b&gt;" style="text;html=1;strokeColor=none;fillColor=none;align=center;verticalAlign=middle;whiteSpace=wrap;rounded=0;" vertex="1" parent="vX2QLoIVe_ydxAlUTGd6-73">
          <mxGeometry x="23.75" y="10" width="110" height="30" as="geometry" />
        </mxCell>
        <mxCell id="vX2QLoIVe_ydxAlUTGd6-21" value="" style="rounded=1;whiteSpace=wrap;html=1;" vertex="1" parent="vX2QLoIVe_ydxAlUTGd6-73">
          <mxGeometry x="23.75" y="50" width="140" height="170" as="geometry" />
        </mxCell>
        <mxCell id="vX2QLoIVe_ydxAlUTGd6-22" value="Pod Informer" style="rounded=0;whiteSpace=wrap;html=1;" vertex="1" parent="vX2QLoIVe_ydxAlUTGd6-73">
          <mxGeometry x="41.25" y="100" width="105" height="40" as="geometry" />
        </mxCell>
        <mxCell id="vX2QLoIVe_ydxAlUTGd6-23" value="Spark Application Informer" style="rounded=0;whiteSpace=wrap;html=1;" vertex="1" parent="vX2QLoIVe_ydxAlUTGd6-73">
          <mxGeometry x="41.25" y="160" width="105" height="40" as="geometry" />
        </mxCell>
        <mxCell id="vX2QLoIVe_ydxAlUTGd6-24" value="Spark Application&lt;br&gt;Controller" style="text;html=1;strokeColor=none;fillColor=none;align=center;verticalAlign=middle;whiteSpace=wrap;rounded=0;" vertex="1" parent="vX2QLoIVe_ydxAlUTGd6-73">
          <mxGeometry x="38.75" y="60" width="110" height="30" as="geometry" />
        </mxCell>
        <mxCell id="vX2QLoIVe_ydxAlUTGd6-38" style="edgeStyle=orthogonalEdgeStyle;rounded=0;orthogonalLoop=1;jettySize=auto;html=1;exitX=1;exitY=0.5;exitDx=0;exitDy=0;entryX=0;entryY=0.5;entryDx=0;entryDy=0;dashed=1;" edge="1" parent="1" source="vX2QLoIVe_ydxAlUTGd6-22" target="vX2QLoIVe_ydxAlUTGd6-6">
          <mxGeometry relative="1" as="geometry" />
        </mxCell>
        <mxCell id="vX2QLoIVe_ydxAlUTGd6-46" value="List&amp;amp;Watch" style="edgeLabel;html=1;align=center;verticalAlign=middle;resizable=0;points=[];" vertex="1" connectable="0" parent="vX2QLoIVe_ydxAlUTGd6-38">
          <mxGeometry x="-0.5949" y="-2" relative="1" as="geometry">
            <mxPoint x="1" as="offset" />
          </mxGeometry>
        </mxCell>
        <mxCell id="vX2QLoIVe_ydxAlUTGd6-39" style="edgeStyle=orthogonalEdgeStyle;rounded=0;orthogonalLoop=1;jettySize=auto;html=1;exitX=1;exitY=0.5;exitDx=0;exitDy=0;entryX=0.063;entryY=1.04;entryDx=0;entryDy=0;entryPerimeter=0;dashed=1;" edge="1" parent="1" source="vX2QLoIVe_ydxAlUTGd6-23" target="vX2QLoIVe_ydxAlUTGd6-6">
          <mxGeometry relative="1" as="geometry" />
        </mxCell>
        <mxCell id="vX2QLoIVe_ydxAlUTGd6-47" value="List&amp;amp;watch" style="edgeLabel;html=1;align=center;verticalAlign=middle;resizable=0;points=[];" vertex="1" connectable="0" parent="vX2QLoIVe_ydxAlUTGd6-39">
          <mxGeometry x="-0.401" y="1" relative="1" as="geometry">
            <mxPoint x="1" as="offset" />
          </mxGeometry>
        </mxCell>
        <mxCell id="vX2QLoIVe_ydxAlUTGd6-79" style="edgeStyle=orthogonalEdgeStyle;rounded=0;orthogonalLoop=1;jettySize=auto;html=1;exitX=0.25;exitY=1;exitDx=0;exitDy=0;entryX=1;entryY=0.5;entryDx=0;entryDy=0;dashed=1;" edge="1" parent="1" source="vX2QLoIVe_ydxAlUTGd6-6" target="vX2QLoIVe_ydxAlUTGd6-28">
          <mxGeometry relative="1" as="geometry" />
        </mxCell>
        <mxCell id="vX2QLoIVe_ydxAlUTGd6-80" style="edgeStyle=orthogonalEdgeStyle;rounded=0;orthogonalLoop=1;jettySize=auto;html=1;exitX=0.25;exitY=1;exitDx=0;exitDy=0;entryX=1;entryY=0.5;entryDx=0;entryDy=0;dashed=1;" edge="1" parent="1" source="vX2QLoIVe_ydxAlUTGd6-6" target="vX2QLoIVe_ydxAlUTGd6-30">
          <mxGeometry relative="1" as="geometry" />
        </mxCell>
        <mxCell id="vX2QLoIVe_ydxAlUTGd6-76" style="edgeStyle=orthogonalEdgeStyle;rounded=0;orthogonalLoop=1;jettySize=auto;html=1;entryX=0.5;entryY=1;entryDx=0;entryDy=0;" edge="1" parent="1" source="vX2QLoIVe_ydxAlUTGd6-12" target="vX2QLoIVe_ydxAlUTGd6-35">
          <mxGeometry relative="1" as="geometry" />
        </mxCell>
      </root>
    </mxGraphModel>
  </diagram>
  <diagram name="Page-1" id="utnu7mFByu7_J5oJiEHp">
    <mxGraphModel dx="1434" dy="764" grid="1" gridSize="10" guides="1" tooltips="1" connect="1" arrows="1" fold="1" page="1" pageScale="1" pageWidth="827" pageHeight="1169" math="0" shadow="0">
      <root>
        <mxCell id="0" />
        <mxCell id="1" parent="0" />
        <mxCell id="oJGpAC8QhAhpul6vFdml-3" value="" style="edgeStyle=orthogonalEdgeStyle;rounded=0;orthogonalLoop=1;jettySize=auto;html=1;dashed=1;" parent="1" source="oJGpAC8QhAhpul6vFdml-1" target="oJGpAC8QhAhpul6vFdml-2" edge="1">
          <mxGeometry relative="1" as="geometry" />
        </mxCell>
        <mxCell id="oJGpAC8QhAhpul6vFdml-1" value="Prometheus" style="text;html=1;strokeColor=none;fillColor=none;align=center;verticalAlign=middle;whiteSpace=wrap;rounded=0;" parent="1" vertex="1">
          <mxGeometry x="354" y="30" width="60" height="30" as="geometry" />
        </mxCell>
        <mxCell id="oJGpAC8QhAhpul6vFdml-2" value="数据源" style="ellipse;whiteSpace=wrap;html=1;sketch=1;" parent="1" vertex="1">
          <mxGeometry x="324" y="100" width="120" height="60" as="geometry" />
        </mxCell>
        <mxCell id="oJGpAC8QhAhpul6vFdml-4" value="" style="rounded=0;whiteSpace=wrap;html=1;sketch=1;fillColor=#FFFFFF;strokeColor=#82b366;" parent="1" vertex="1">
          <mxGeometry x="134" y="200" width="500" height="130" as="geometry" />
        </mxCell>
        <mxCell id="oJGpAC8QhAhpul6vFdml-6" value="按pod分类" style="rounded=0;whiteSpace=wrap;html=1;sketch=1;fillColor=#ffe6cc;strokeColor=#d79b00;" parent="1" vertex="1">
          <mxGeometry x="160" y="240" width="120" height="60" as="geometry" />
        </mxCell>
        <mxCell id="oJGpAC8QhAhpul6vFdml-8" value="数据补全" style="rounded=0;whiteSpace=wrap;html=1;sketch=1;fillColor=#ffe6cc;strokeColor=#d79b00;" parent="1" vertex="1">
          <mxGeometry x="324" y="240" width="120" height="60" as="geometry" />
        </mxCell>
        <mxCell id="oJGpAC8QhAhpul6vFdml-9" value="指标筛选" style="rounded=0;whiteSpace=wrap;html=1;sketch=1;fillColor=#ffe6cc;strokeColor=#d79b00;" parent="1" vertex="1">
          <mxGeometry x="490" y="240" width="120" height="60" as="geometry" />
        </mxCell>
        <mxCell id="oJGpAC8QhAhpul6vFdml-10" value="" style="endArrow=classic;html=1;rounded=0;exitX=0.5;exitY=1;exitDx=0;exitDy=0;entryX=0.5;entryY=0;entryDx=0;entryDy=0;" parent="1" source="oJGpAC8QhAhpul6vFdml-2" target="oJGpAC8QhAhpul6vFdml-8" edge="1">
          <mxGeometry relative="1" as="geometry">
            <mxPoint x="354" y="170" as="sourcePoint" />
            <mxPoint x="454" y="170" as="targetPoint" />
          </mxGeometry>
        </mxCell>
        <mxCell id="oJGpAC8QhAhpul6vFdml-11" value="数据预处理" style="edgeLabel;resizable=0;html=1;align=center;verticalAlign=middle;sketch=1;fillColor=#FFFFFF;" parent="oJGpAC8QhAhpul6vFdml-10" connectable="0" vertex="1">
          <mxGeometry relative="1" as="geometry" />
        </mxCell>
        <mxCell id="oJGpAC8QhAhpul6vFdml-12" value="" style="endArrow=none;html=1;rounded=0;entryX=0.5;entryY=1;entryDx=0;entryDy=0;" parent="1" target="oJGpAC8QhAhpul6vFdml-8" edge="1">
          <mxGeometry width="50" height="50" relative="1" as="geometry">
            <mxPoint x="384" y="360" as="sourcePoint" />
            <mxPoint x="470" y="330" as="targetPoint" />
          </mxGeometry>
        </mxCell>
        <mxCell id="oJGpAC8QhAhpul6vFdml-13" value="数据分类" style="text;html=1;strokeColor=none;fillColor=none;align=center;verticalAlign=middle;whiteSpace=wrap;rounded=0;sketch=1;" parent="1" vertex="1">
          <mxGeometry x="354" y="353" width="60" height="30" as="geometry" />
        </mxCell>
        <mxCell id="oJGpAC8QhAhpul6vFdml-23" value="" style="edgeStyle=elbowEdgeStyle;elbow=vertical;endArrow=classic;html=1;rounded=0;exitX=0.5;exitY=1;exitDx=0;exitDy=0;" parent="1" source="oJGpAC8QhAhpul6vFdml-13" edge="1">
          <mxGeometry width="50" height="50" relative="1" as="geometry">
            <mxPoint x="460" y="380" as="sourcePoint" />
            <mxPoint x="570" y="430" as="targetPoint" />
            <Array as="points">
              <mxPoint x="630" y="380" />
            </Array>
          </mxGeometry>
        </mxCell>
        <mxCell id="oJGpAC8QhAhpul6vFdml-24" value="资源数据" style="edgeLabel;html=1;align=center;verticalAlign=middle;resizable=0;points=[];" parent="oJGpAC8QhAhpul6vFdml-23" vertex="1" connectable="0">
          <mxGeometry x="0.1444" y="1" relative="1" as="geometry">
            <mxPoint as="offset" />
          </mxGeometry>
        </mxCell>
        <mxCell id="oJGpAC8QhAhpul6vFdml-25" value="" style="edgeStyle=elbowEdgeStyle;elbow=vertical;endArrow=classic;html=1;rounded=0;exitX=0.5;exitY=1;exitDx=0;exitDy=0;" parent="1" source="oJGpAC8QhAhpul6vFdml-13" edge="1">
          <mxGeometry width="50" height="50" relative="1" as="geometry">
            <mxPoint x="160" y="380" as="sourcePoint" />
            <mxPoint x="210" y="430" as="targetPoint" />
            <Array as="points">
              <mxPoint x="280" y="380" />
              <mxPoint x="320" y="380" />
              <mxPoint x="230" y="380" />
              <mxPoint x="220" y="400" />
            </Array>
          </mxGeometry>
        </mxCell>
        <mxCell id="oJGpAC8QhAhpul6vFdml-26" value="时序数据" style="edgeLabel;html=1;align=center;verticalAlign=middle;resizable=0;points=[];" parent="oJGpAC8QhAhpul6vFdml-25" vertex="1" connectable="0">
          <mxGeometry x="0.1444" y="1" relative="1" as="geometry">
            <mxPoint as="offset" />
          </mxGeometry>
        </mxCell>
        <mxCell id="oJGpAC8QhAhpul6vFdml-27" value="" style="ellipse;whiteSpace=wrap;html=1;sketch=1;fillColor=#f5f5f5;fontColor=#333333;strokeColor=#666666;dashed=1;" parent="1" vertex="1">
          <mxGeometry x="80" y="430" width="260" height="130" as="geometry" />
        </mxCell>
        <mxCell id="oJGpAC8QhAhpul6vFdml-48" value="" style="edgeStyle=orthogonalEdgeStyle;rounded=0;orthogonalLoop=1;jettySize=auto;html=1;" parent="1" source="oJGpAC8QhAhpul6vFdml-28" target="oJGpAC8QhAhpul6vFdml-47" edge="1">
          <mxGeometry relative="1" as="geometry" />
        </mxCell>
        <mxCell id="oJGpAC8QhAhpul6vFdml-28" value="" style="ellipse;whiteSpace=wrap;html=1;sketch=1;fillColor=#f5f5f5;dashed=1;fontColor=#333333;strokeColor=#666666;" parent="1" vertex="1">
          <mxGeometry x="444" y="430" width="254" height="130" as="geometry" />
        </mxCell>
        <mxCell id="oJGpAC8QhAhpul6vFdml-34" value="" style="edgeStyle=orthogonalEdgeStyle;rounded=0;orthogonalLoop=1;jettySize=auto;html=1;" parent="1" source="oJGpAC8QhAhpul6vFdml-29" target="oJGpAC8QhAhpul6vFdml-33" edge="1">
          <mxGeometry relative="1" as="geometry" />
        </mxCell>
        <mxCell id="oJGpAC8QhAhpul6vFdml-29" value="周期性pod" style="whiteSpace=wrap;html=1;aspect=fixed;sketch=1;fillColor=#fff2cc;strokeColor=#d6b656;" parent="1" vertex="1">
          <mxGeometry x="130" y="462.5" width="65" height="65" as="geometry" />
        </mxCell>
        <mxCell id="oJGpAC8QhAhpul6vFdml-30" value="非周期性&lt;br&gt;pod" style="whiteSpace=wrap;html=1;aspect=fixed;sketch=1;fillColor=#fff2cc;strokeColor=#d6b656;" parent="1" vertex="1">
          <mxGeometry x="230" y="462.5" width="65" height="65" as="geometry" />
        </mxCell>
        <mxCell id="oJGpAC8QhAhpul6vFdml-31" value="" style="endArrow=classic;startArrow=classic;html=1;rounded=0;exitX=0;exitY=0.5;exitDx=0;exitDy=0;" parent="1" source="oJGpAC8QhAhpul6vFdml-27" edge="1">
          <mxGeometry width="50" height="50" relative="1" as="geometry">
            <mxPoint x="110" y="320" as="sourcePoint" />
            <mxPoint x="160" y="270" as="targetPoint" />
            <Array as="points">
              <mxPoint x="50" y="495" />
              <mxPoint x="50" y="270" />
            </Array>
          </mxGeometry>
        </mxCell>
        <mxCell id="oJGpAC8QhAhpul6vFdml-36" value="" style="edgeStyle=orthogonalEdgeStyle;rounded=0;orthogonalLoop=1;jettySize=auto;html=1;" parent="1" source="oJGpAC8QhAhpul6vFdml-33" target="oJGpAC8QhAhpul6vFdml-35" edge="1">
          <mxGeometry relative="1" as="geometry" />
        </mxCell>
        <mxCell id="oJGpAC8QhAhpul6vFdml-33" value="提取特征" style="rhombus;whiteSpace=wrap;html=1;fillColor=#d5e8d4;strokeColor=#82b366;sketch=1;" parent="1" vertex="1">
          <mxGeometry x="123.75" y="600" width="77.5" height="60" as="geometry" />
        </mxCell>
        <mxCell id="oJGpAC8QhAhpul6vFdml-38" value="" style="edgeStyle=orthogonalEdgeStyle;rounded=0;orthogonalLoop=1;jettySize=auto;html=1;entryX=0.5;entryY=0;entryDx=0;entryDy=0;" parent="1" source="oJGpAC8QhAhpul6vFdml-35" target="oJGpAC8QhAhpul6vFdml-41" edge="1">
          <mxGeometry relative="1" as="geometry">
            <mxPoint x="162.5" y="800" as="targetPoint" />
          </mxGeometry>
        </mxCell>
        <mxCell id="oJGpAC8QhAhpul6vFdml-35" value="主周期判断" style="rhombus;whiteSpace=wrap;html=1;fillColor=#d5e8d4;strokeColor=#82b366;sketch=1;" parent="1" vertex="1">
          <mxGeometry x="123.75" y="680" width="77.5" height="60" as="geometry" />
        </mxCell>
        <mxCell id="oJGpAC8QhAhpul6vFdml-41" value="&lt;span style=&quot;caret-color: rgb(0, 0, 0); color: rgb(0, 0, 0); font-family: Helvetica; font-size: 12px; font-style: normal; font-variant-caps: normal; font-weight: 400; letter-spacing: normal; text-align: center; text-indent: 0px; text-transform: none; word-spacing: 0px; -webkit-text-stroke-width: 0px; background-color: rgb(248, 249, 250); text-decoration: none; float: none; display: inline !important;&quot;&gt;预测（参考go-dsp计算FFT函数）&lt;/span&gt;" style="rounded=1;whiteSpace=wrap;html=1;sketch=1;fillColor=#FFFFFF;" parent="1" vertex="1">
          <mxGeometry x="102.5" y="780" width="120" height="60" as="geometry" />
        </mxCell>
        <mxCell id="oJGpAC8QhAhpul6vFdml-42" value="启发式方法" style="endArrow=classic;html=1;rounded=0;exitX=0.5;exitY=1;exitDx=0;exitDy=0;entryX=0.5;entryY=0;entryDx=0;entryDy=0;" parent="1" source="oJGpAC8QhAhpul6vFdml-30" target="oJGpAC8QhAhpul6vFdml-43" edge="1">
          <mxGeometry width="50" height="50" relative="1" as="geometry">
            <mxPoint x="350" y="660" as="sourcePoint" />
            <mxPoint x="270" y="800" as="targetPoint" />
            <Array as="points">
              <mxPoint x="263" y="670" />
              <mxPoint x="330" y="670" />
            </Array>
          </mxGeometry>
        </mxCell>
        <mxCell id="oJGpAC8QhAhpul6vFdml-43" value="&lt;span style=&quot;caret-color: rgb(0, 0, 0); color: rgb(0, 0, 0); font-family: Helvetica; font-size: 12px; font-style: normal; font-variant-caps: normal; font-weight: 400; letter-spacing: normal; text-align: center; text-indent: 0px; text-transform: none; word-spacing: 0px; -webkit-text-stroke-width: 0px; background-color: rgb(248, 249, 250); text-decoration: none; float: none; display: inline !important;&quot;&gt;预测（参考上月、上年同期记录等）&lt;/span&gt;" style="rounded=1;whiteSpace=wrap;html=1;sketch=1;fillColor=#FFFFFF;" parent="1" vertex="1">
          <mxGeometry x="270" y="780" width="120" height="60" as="geometry" />
        </mxCell>
        <mxCell id="oJGpAC8QhAhpul6vFdml-44" value="真实负载" style="whiteSpace=wrap;html=1;aspect=fixed;sketch=1;fillColor=#fff2cc;strokeColor=#d6b656;" parent="1" vertex="1">
          <mxGeometry x="480" y="462.5" width="65" height="65" as="geometry" />
        </mxCell>
        <mxCell id="oJGpAC8QhAhpul6vFdml-45" value="资源差值" style="whiteSpace=wrap;html=1;aspect=fixed;sketch=1;fillColor=#fff2cc;strokeColor=#d6b656;" parent="1" vertex="1">
          <mxGeometry x="560" y="462.5" width="65" height="65" as="geometry" />
        </mxCell>
        <mxCell id="oJGpAC8QhAhpul6vFdml-46" value="..." style="text;html=1;strokeColor=none;fillColor=none;align=center;verticalAlign=middle;whiteSpace=wrap;rounded=0;sketch=1;" parent="1" vertex="1">
          <mxGeometry x="610" y="480" width="60" height="30" as="geometry" />
        </mxCell>
        <mxCell id="oJGpAC8QhAhpul6vFdml-53" value="" style="edgeStyle=orthogonalEdgeStyle;rounded=0;orthogonalLoop=1;jettySize=auto;html=1;" parent="1" source="oJGpAC8QhAhpul6vFdml-47" target="oJGpAC8QhAhpul6vFdml-52" edge="1">
          <mxGeometry relative="1" as="geometry" />
        </mxCell>
        <mxCell id="oJGpAC8QhAhpul6vFdml-47" value="仿插件计算，但不执行调度" style="rhombus;whiteSpace=wrap;html=1;sketch=1;fillColor=#d5e8d4;strokeColor=#82b366;" parent="1" vertex="1">
          <mxGeometry x="521" y="620" width="100" height="90" as="geometry" />
        </mxCell>
        <mxCell id="oJGpAC8QhAhpul6vFdml-49" value="" style="endArrow=classic;startArrow=classic;html=1;rounded=0;exitX=1;exitY=0.5;exitDx=0;exitDy=0;entryX=1;entryY=0.5;entryDx=0;entryDy=0;" parent="1" source="oJGpAC8QhAhpul6vFdml-28" target="oJGpAC8QhAhpul6vFdml-4" edge="1">
          <mxGeometry width="50" height="50" relative="1" as="geometry">
            <mxPoint x="759.9999999999994" y="505" as="sourcePoint" />
            <mxPoint x="840" y="280" as="targetPoint" />
            <Array as="points">
              <mxPoint x="730" y="495" />
              <mxPoint x="730" y="265" />
            </Array>
          </mxGeometry>
        </mxCell>
        <mxCell id="oJGpAC8QhAhpul6vFdml-52" value="评价（根据得分输出不合理的资源分布）" style="rounded=1;whiteSpace=wrap;html=1;sketch=1;" parent="1" vertex="1">
          <mxGeometry x="511" y="780" width="120" height="60" as="geometry" />
        </mxCell>
        <mxCell id="oJGpAC8QhAhpul6vFdml-54" value="输出结果" style="strokeWidth=2;html=1;shape=mxgraph.flowchart.database;whiteSpace=wrap;sketch=1;fillColor=#fff2cc;strokeColor=#d6b656;" parent="1" vertex="1">
          <mxGeometry x="357" y="900" width="60" height="60" as="geometry" />
        </mxCell>
        <mxCell id="oJGpAC8QhAhpul6vFdml-58" value="" style="edgeStyle=orthogonalEdgeStyle;rounded=0;orthogonalLoop=1;jettySize=auto;html=1;" parent="1" source="oJGpAC8QhAhpul6vFdml-55" target="oJGpAC8QhAhpul6vFdml-54" edge="1">
          <mxGeometry relative="1" as="geometry" />
        </mxCell>
        <mxCell id="oJGpAC8QhAhpul6vFdml-55" value="" style="verticalLabelPosition=bottom;verticalAlign=top;html=1;shape=mxgraph.basic.rect;fillColor2=none;strokeWidth=1;size=20;indent=5;sketch=1;fillColor=none;strokeColor=#82b366;" parent="1" vertex="1">
          <mxGeometry x="47" y="586" width="680" height="274" as="geometry" />
        </mxCell>
        <mxCell id="oJGpAC8QhAhpul6vFdml-56" value="Calculate" style="text;html=1;strokeColor=none;fillColor=none;align=center;verticalAlign=middle;whiteSpace=wrap;rounded=0;sketch=1;" parent="1" vertex="1">
          <mxGeometry x="50" y="585" width="60" height="30" as="geometry" />
        </mxCell>
        <mxCell id="oJGpAC8QhAhpul6vFdml-57" value="Preprocess" style="text;html=1;strokeColor=none;fillColor=none;align=center;verticalAlign=middle;whiteSpace=wrap;rounded=0;sketch=1;" parent="1" vertex="1">
          <mxGeometry x="138.25" y="199" width="60" height="30" as="geometry" />
        </mxCell>
      </root>
    </mxGraphModel>
  </diagram>
  <diagram name="Page-2" id="hg2euQt4YG40Ja6NWLz_">
    <mxGraphModel dx="1434" dy="764" grid="1" gridSize="10" guides="1" tooltips="1" connect="1" arrows="1" fold="1" page="1" pageScale="1" pageWidth="827" pageHeight="1169" math="0" shadow="0">
      <root>
        <mxCell id="0" />
        <mxCell id="1" parent="0" />
      </root>
    </mxGraphModel>
  </diagram>
  <diagram id="fWsfR_73KGaZ_DEX9Uw6" name="第 6 页">
    <mxGraphModel dx="1434" dy="764" grid="1" gridSize="10" guides="1" tooltips="1" connect="1" arrows="1" fold="1" page="1" pageScale="1" pageWidth="827" pageHeight="1169" math="0" shadow="0">
      <root>
        <mxCell id="0" />
        <mxCell id="1" parent="0" />
      </root>
    </mxGraphModel>
  </diagram>
</mxfile>
